<svg width="24" height="27" viewBox="0 0 24 27" fill="none" xmlns="http://www.w3.org/2000/svg">
<path d="M10.9783 1.76611C11.5052 1.49997 12.1273 1.50026 12.6539 1.7669L22.0084 6.50317C22.6328 6.81928 23.0263 7.45961 23.0263 8.1594V18.9061C23.0263 19.5693 22.6725 20.1822 22.0981 20.5138L12.7313 25.9217C12.157 26.2533 11.4493 26.2533 10.8749 25.9217L1.5082 20.5138C0.933819 20.1822 0.579987 19.5693 0.579987 18.9061V8.16061C0.579987 7.46019 0.974215 6.81939 1.59941 6.50359L10.9783 1.76611Z" fill="#C4C4C4"/>
<path d="M1.60774 8.281C0.719809 7.7684 0.719809 6.93729 1.60774 6.42468L10.1954 1.46697C11.0833 0.954358 12.5229 0.954358 13.4109 1.46697L21.9985 6.42468C22.8864 6.93729 22.8864 7.7684 21.9985 8.281L13.4109 13.2387C12.5229 13.7513 11.0833 13.7513 10.1954 13.2387L1.60774 8.281Z" fill="#34495E"/>
</svg>
